<?xml version="1.0" encoding="utf-8"?>
<!-- Generator: Adobe Illustrator 16.0.0, SVG Export Plug-In . SVG Version: 6.00 Build 0)  -->
<!DOCTYPE svg PUBLIC "-//W3C//DTD SVG 1.1//EN" "http://www.w3.org/Graphics/SVG/1.1/DTD/svg11.dtd">
<svg version="1.1" id="Layer_1" xmlns="http://www.w3.org/2000/svg" xmlns:xlink="http://www.w3.org/1999/xlink" x="0px" y="0px"
	 width="377px" height="206px" viewBox="0 0 377 206" enable-background="new 0 0 377 206" xml:space="preserve">
<g>
	<path fill="none" stroke="#00A79D" stroke-width="16" stroke-linecap="round" stroke-linejoin="round" stroke-miterlimit="10" d="
		M27.342,161.215l22.537-104.51c-3.006,0.103-5.756,0.675-8.251,1.718c-2.495,1.044-4.635,2.789-6.417,5.232
		c-1.784,2.446-3.171,5.73-4.164,9.856c-0.992,4.126-1.489,9.321-1.489,15.584c0,1.987,0.114,3.605,0.343,4.851
		c0.23,1.25,0.484,2.243,0.765,2.98c0.279,0.74,0.535,1.312,0.765,1.719c0.229,0.409,0.343,0.764,0.343,1.07
		c-2.699,0-5.094-0.268-7.181-0.802c-2.09-0.535-3.846-1.388-5.271-2.56c-1.427-1.17-2.509-2.725-3.247-4.659
		c-0.738-1.937-1.107-4.33-1.107-7.183c0-5.195,0.967-10.237,2.903-15.126c1.935-4.889,5.028-9.217,9.281-12.987
		c4.253-3.768,9.767-6.799,16.54-9.091s14.999-3.438,24.676-3.438c1.579,0,3.35,0.103,5.311,0.305
		c1.959,0.205,4.049,0.421,6.265,0.65c2.215,0.229,4.545,0.446,6.99,0.649c2.444,0.204,4.914,0.306,7.41,0.306
		c2.444,0,4.852-0.14,7.22-0.421c2.368-0.279,4.646-0.775,6.837-1.489c-0.51,1.63-1.006,3.399-1.49,5.309
		c-0.483,1.91-1.21,3.757-2.177,5.539c-0.968,1.784-2.318,3.4-4.049,4.851c-1.732,1.452-4.101,2.483-7.105,3.095
		c-3.718,0-7.386-0.281-11.001-0.841c-3.616-0.56-7.258-1.272-10.925-2.139l-6.569,31.093h22.842l-2.521,11.613H62.561
		l-12.682,58.825H27.342z"/>
	<path fill="none" stroke="#00A79D" stroke-width="16" stroke-linecap="round" stroke-linejoin="round" stroke-miterlimit="10" d="
		M174.251,133.176c-1.477,4.23-3.081,7.896-4.812,11.002c-1.731,3.107-3.527,5.73-5.386,7.869c-1.859,2.139-3.757,3.871-5.691,5.195
		c-1.936,1.326-3.819,2.344-5.653,3.057c-1.833,0.713-3.59,1.197-5.271,1.451c-1.681,0.254-3.208,0.381-4.584,0.381
		c-4.431,0-7.958-1.207-10.58-3.629c-2.624-2.416-4.215-5.998-4.775-10.734c-1.273,1.785-2.673,3.529-4.202,5.234
		c-1.527,1.707-3.234,3.236-5.118,4.584c-1.885,1.35-3.985,2.445-6.303,3.285s-4.877,1.26-7.677,1.26
		c-2.701,0-5.299-0.432-7.793-1.297c-2.497-0.865-4.712-2.293-6.646-4.279c-1.937-1.986-3.489-4.584-4.66-7.793
		c-1.172-3.207-1.758-7.131-1.758-11.766c0-3.564,0.357-7.384,1.069-11.459c0.715-4.073,1.809-8.148,3.286-12.223
		c1.477-4.074,3.323-7.984,5.538-11.727c2.216-3.744,4.812-7.054,7.793-9.932c2.979-2.877,6.353-5.169,10.122-6.876
		c3.769-1.705,7.919-2.558,12.453-2.558c4.431,0,7.651,0.763,9.664,2.291c2.012,1.528,3.018,3.413,3.018,5.652v1.147l1.68-8.327
		h22.538l-11.23,53.171c-0.255,0.867-0.434,1.719-0.535,2.559c-0.103,0.842-0.152,1.67-0.152,2.484c0,4.482,2.139,6.723,6.417,6.723
		c1.528,0,2.941-0.395,4.24-1.184c1.299-0.791,2.482-1.846,3.553-3.172c1.069-1.324,2.011-2.891,2.826-4.699
		c0.814-1.807,1.501-3.705,2.062-5.691H174.251z M134.831,97.882c0-0.459-0.103-1.031-0.305-1.72
		c-0.204-0.686-0.548-1.348-1.031-1.985c-0.485-0.636-1.135-1.17-1.949-1.604c-0.814-0.431-1.859-0.65-3.132-0.65
		c-2.19,0-4.267,0.714-6.227,2.139c-1.961,1.427-3.756,3.324-5.386,5.692s-3.082,5.056-4.354,8.06
		c-1.273,3.007-2.356,6.1-3.247,9.282c-0.892,3.184-1.566,6.315-2.024,9.396c-0.458,3.083-0.688,5.844-0.688,8.29
		c0,3.006,0.279,5.324,0.84,6.953s1.234,2.84,2.025,3.627c0.789,0.791,1.643,1.262,2.559,1.414c0.917,0.152,1.731,0.229,2.445,0.229
		c1.171,0,2.406-0.291,3.705-0.879c1.299-0.584,2.546-1.449,3.743-2.596c1.196-1.146,2.292-2.584,3.285-4.316
		c0.993-1.73,1.744-3.744,2.254-6.037L134.831,97.882z"/>
	<path fill="none" stroke="#00A79D" stroke-width="16" stroke-linecap="round" stroke-linejoin="round" stroke-miterlimit="10" d="
		M178.302,82.985h22.536l-11.23,53.171c-0.254,1.174-0.458,2.229-0.61,3.17c-0.153,0.943-0.23,1.771-0.23,2.484
		c0,1.578,0.422,2.84,1.26,3.781c0.842,0.943,2.204,1.412,4.089,1.412c2.546,0,4.989-0.891,7.334-2.674
		c2.342-1.781,4.507-4.137,6.494-7.064c1.984-2.93,3.793-6.252,5.424-9.971c1.63-3.717,3.017-7.512,4.163-11.384
		c1.146-3.869,2.036-7.651,2.674-11.344c0.636-3.692,0.955-6.964,0.955-9.818c-0.102,0.256-0.37,0.485-0.803,0.689
		s-0.904,0.37-1.413,0.497c-0.509,0.127-1.02,0.215-1.527,0.266c-0.51,0.051-0.917,0.077-1.223,0.077
		c-0.918,0-1.732-0.241-2.444-0.726c-0.715-0.482-1.312-1.108-1.795-1.872c-0.485-0.763-0.84-1.617-1.07-2.56
		c-0.229-0.94-0.345-1.872-0.345-2.788c0-2.445,0.777-4.47,2.331-6.074c1.552-1.604,4.011-2.406,7.373-2.406
		c1.883,0,3.449,0.38,4.697,1.146c1.249,0.763,2.255,1.783,3.019,3.055c0.763,1.274,1.311,2.725,1.642,4.355
		s0.497,3.312,0.497,5.042c0,4.177-0.357,8.774-1.07,13.789c-0.713,5.019-1.846,10.072-3.398,15.165
		c-1.554,5.093-3.515,10.021-5.883,14.783c-2.368,4.764-5.209,8.99-8.519,12.682c-3.312,3.693-7.104,6.66-11.383,8.902
		c-4.279,2.24-9.066,3.359-14.363,3.359c-5.907,0-10.581-1.512-14.018-4.545c-3.438-3.031-5.157-7.652-5.157-13.865
		c0-0.865,0.051-1.975,0.153-3.324s0.305-2.762,0.61-4.24L178.302,82.985z"/>
	<path fill="none" stroke="#00A79D" stroke-width="16" stroke-linecap="round" stroke-linejoin="round" stroke-miterlimit="10" d="
		M320.398,101.777c-3.057,3.209-7.003,5.934-11.842,8.175s-10.136,3.846-15.89,4.813c-0.611,7.231-2,13.75-4.165,19.556
		c-2.165,5.807-4.901,10.748-8.211,14.822c-3.312,4.074-7.105,7.207-11.384,9.396c-4.277,2.191-8.812,3.285-13.598,3.285
		c-3.617,0-6.966-0.447-10.047-1.336c-3.082-0.893-5.729-2.318-7.944-4.279s-3.949-4.508-5.195-7.641
		c-1.248-3.131-1.872-6.939-1.872-11.42c0-3.057,0.318-6.533,0.955-10.429c0.638-3.896,1.654-7.907,3.055-12.032
		c1.401-4.125,3.21-8.161,5.426-12.109c2.216-3.946,4.913-7.473,8.098-10.58c3.181-3.108,6.862-5.617,11.039-7.525
		c4.175-1.91,8.938-2.865,14.286-2.865c13.394,0,20.092,8.328,20.092,24.981v0.152c0.255,0.104,0.497,0.154,0.726,0.154
		c0.229,0,0.547,0,0.956,0c1.832,0,3.805-0.268,5.919-0.802c2.113-0.535,4.241-1.235,6.381-2.102
		c2.138-0.866,4.228-1.872,6.264-3.017c2.036-1.147,3.896-2.304,5.578-3.476L320.398,101.777z M279.679,115.224
		c-1.629-0.407-2.737-1.21-3.324-2.406c-0.585-1.196-0.877-2.585-0.877-4.165c0-2.188,0.444-3.983,1.337-5.384
		c0.891-1.401,2.073-2.433,3.553-3.095c-0.104-1.681-0.281-3.094-0.536-4.239c-0.255-1.147-0.61-2.088-1.068-2.827
		c-0.459-0.739-1.032-1.26-1.719-1.567c-0.689-0.305-1.566-0.458-2.635-0.458c-1.887,0-3.695,0.726-5.426,2.178
		c-1.732,1.451-3.374,3.375-4.928,5.767c-1.555,2.395-2.979,5.132-4.277,8.212c-1.3,3.083-2.406,6.254-3.323,9.513
		c-0.918,3.259-1.631,6.48-2.14,9.663c-0.509,3.185-0.764,6.073-0.764,8.67s0.14,4.711,0.42,6.342
		c0.279,1.631,0.737,2.916,1.375,3.857c0.637,0.943,1.463,1.594,2.484,1.949c1.018,0.357,2.265,0.533,3.742,0.533
		c1.883,0,3.781-0.84,5.691-2.521c1.91-1.68,3.68-3.971,5.309-6.873c1.631-2.904,3.069-6.342,4.317-10.315
		C278.138,124.086,279.067,119.808,279.679,115.224z"/>
	<path fill="none" stroke="#00A79D" stroke-width="16" stroke-linecap="round" stroke-linejoin="round" stroke-miterlimit="10" d="
		M295.188,161.215l16.579-78.23h22.537l-1.985,9.701c1.374-1.222,2.775-2.418,4.2-3.59c1.426-1.17,2.917-2.202,4.471-3.093
		c1.551-0.892,3.171-1.617,4.851-2.178c1.68-0.56,3.461-0.84,5.347-0.84c1.782,0,3.348,0.333,4.698,0.993
		c1.351,0.663,2.481,1.528,3.401,2.597c0.916,1.069,1.602,2.317,2.062,3.743c0.458,1.428,0.686,2.904,0.686,4.431
		c0,1.376-0.228,2.74-0.686,4.089c-0.461,1.35-1.161,2.558-2.102,3.628c-0.943,1.069-2.129,1.948-3.554,2.635
		c-1.426,0.688-3.081,1.031-4.965,1.031c-1.479,0-2.61-0.255-3.401-0.764c-0.79-0.509-1.386-1.146-1.793-1.91
		c-0.41-0.764-0.701-1.591-0.881-2.482c-0.176-0.891-0.368-1.72-0.571-2.484c-0.204-0.763-0.47-1.399-0.803-1.909
		c-0.332-0.509-0.877-0.765-1.644-0.765c-2.393,0-4.404,0.548-6.033,1.642c-1.632,1.096-3.413,2.535-5.348,4.316l-12.53,59.438
		H295.188z"/>
</g>
<g>
	<path fill="none" stroke="#8DC63F" stroke-width="8" stroke-linecap="round" stroke-linejoin="round" stroke-miterlimit="10" d="
		M27.342,161.215l22.537-104.51c-3.006,0.103-5.756,0.675-8.251,1.718c-2.495,1.044-4.635,2.789-6.417,5.232
		c-1.784,2.446-3.171,5.73-4.164,9.856c-0.992,4.126-1.489,9.321-1.489,15.584c0,1.987,0.114,3.605,0.343,4.851
		c0.23,1.25,0.484,2.243,0.765,2.98c0.279,0.74,0.535,1.312,0.765,1.719c0.229,0.409,0.343,0.764,0.343,1.07
		c-2.699,0-5.094-0.268-7.181-0.802c-2.09-0.535-3.846-1.388-5.271-2.56c-1.427-1.17-2.509-2.725-3.247-4.659
		c-0.738-1.937-1.107-4.33-1.107-7.183c0-5.195,0.967-10.237,2.903-15.126c1.935-4.889,5.028-9.217,9.281-12.987
		c4.253-3.768,9.767-6.799,16.54-9.091s14.999-3.438,24.676-3.438c1.579,0,3.35,0.103,5.311,0.305
		c1.959,0.205,4.049,0.421,6.265,0.65c2.215,0.229,4.545,0.446,6.99,0.649c2.444,0.204,4.914,0.306,7.41,0.306
		c2.444,0,4.852-0.14,7.22-0.421c2.368-0.279,4.646-0.775,6.837-1.489c-0.51,1.63-1.006,3.399-1.49,5.309
		c-0.483,1.91-1.21,3.757-2.177,5.539c-0.968,1.784-2.318,3.4-4.049,4.851c-1.732,1.452-4.101,2.483-7.105,3.095
		c-3.718,0-7.386-0.281-11.001-0.841c-3.616-0.56-7.258-1.272-10.925-2.139l-6.569,31.093h22.842l-2.521,11.613H62.561
		l-12.682,58.825H27.342z"/>
	<path fill="none" stroke="#8DC63F" stroke-width="8" stroke-linecap="round" stroke-linejoin="round" stroke-miterlimit="10" d="
		M174.251,133.176c-1.477,4.23-3.081,7.896-4.812,11.002c-1.731,3.107-3.527,5.73-5.386,7.869c-1.859,2.139-3.757,3.871-5.691,5.195
		c-1.936,1.326-3.819,2.344-5.653,3.057c-1.833,0.713-3.59,1.197-5.271,1.451c-1.681,0.254-3.208,0.381-4.584,0.381
		c-4.431,0-7.958-1.207-10.58-3.629c-2.624-2.416-4.215-5.998-4.775-10.734c-1.273,1.785-2.673,3.529-4.202,5.234
		c-1.527,1.707-3.234,3.236-5.118,4.584c-1.885,1.35-3.985,2.445-6.303,3.285s-4.877,1.26-7.677,1.26
		c-2.701,0-5.299-0.432-7.793-1.297c-2.497-0.865-4.712-2.293-6.646-4.279c-1.937-1.986-3.489-4.584-4.66-7.793
		c-1.172-3.207-1.758-7.131-1.758-11.766c0-3.564,0.357-7.384,1.069-11.459c0.715-4.073,1.809-8.148,3.286-12.223
		c1.477-4.074,3.323-7.984,5.538-11.727c2.216-3.744,4.812-7.054,7.793-9.932c2.979-2.877,6.353-5.169,10.122-6.876
		c3.769-1.705,7.919-2.558,12.453-2.558c4.431,0,7.651,0.763,9.664,2.291c2.012,1.528,3.018,3.413,3.018,5.652v1.147l1.68-8.327
		h22.538l-11.23,53.171c-0.255,0.867-0.434,1.719-0.535,2.559c-0.103,0.842-0.152,1.67-0.152,2.484c0,4.482,2.139,6.723,6.417,6.723
		c1.528,0,2.941-0.395,4.24-1.184c1.299-0.791,2.482-1.846,3.553-3.172c1.069-1.324,2.011-2.891,2.826-4.699
		c0.814-1.807,1.501-3.705,2.062-5.691H174.251z M134.831,97.882c0-0.459-0.103-1.031-0.305-1.72
		c-0.204-0.686-0.548-1.348-1.031-1.985c-0.485-0.636-1.135-1.17-1.949-1.604c-0.814-0.431-1.859-0.65-3.132-0.65
		c-2.19,0-4.267,0.714-6.227,2.139c-1.961,1.427-3.756,3.324-5.386,5.692s-3.082,5.056-4.354,8.06
		c-1.273,3.007-2.356,6.1-3.247,9.282c-0.892,3.184-1.566,6.315-2.024,9.396c-0.458,3.083-0.688,5.844-0.688,8.29
		c0,3.006,0.279,5.324,0.84,6.953s1.234,2.84,2.025,3.627c0.789,0.791,1.643,1.262,2.559,1.414c0.917,0.152,1.731,0.229,2.445,0.229
		c1.171,0,2.406-0.291,3.705-0.879c1.299-0.584,2.546-1.449,3.743-2.596c1.196-1.146,2.292-2.584,3.285-4.316
		c0.993-1.73,1.744-3.744,2.254-6.037L134.831,97.882z"/>
	<path fill="none" stroke="#8DC63F" stroke-width="8" stroke-linecap="round" stroke-linejoin="round" stroke-miterlimit="10" d="
		M178.302,82.985h22.536l-11.23,53.171c-0.254,1.174-0.458,2.229-0.61,3.17c-0.153,0.943-0.23,1.771-0.23,2.484
		c0,1.578,0.422,2.84,1.26,3.781c0.842,0.943,2.204,1.412,4.089,1.412c2.546,0,4.989-0.891,7.334-2.674
		c2.342-1.781,4.507-4.137,6.494-7.064c1.984-2.93,3.793-6.252,5.424-9.971c1.63-3.717,3.017-7.512,4.163-11.384
		c1.146-3.869,2.036-7.651,2.674-11.344c0.636-3.692,0.955-6.964,0.955-9.818c-0.102,0.256-0.37,0.485-0.803,0.689
		s-0.904,0.37-1.413,0.497c-0.509,0.127-1.02,0.215-1.527,0.266c-0.51,0.051-0.917,0.077-1.223,0.077
		c-0.918,0-1.732-0.241-2.444-0.726c-0.715-0.482-1.312-1.108-1.795-1.872c-0.485-0.763-0.84-1.617-1.07-2.56
		c-0.229-0.94-0.345-1.872-0.345-2.788c0-2.445,0.777-4.47,2.331-6.074c1.552-1.604,4.011-2.406,7.373-2.406
		c1.883,0,3.449,0.38,4.697,1.146c1.249,0.763,2.255,1.783,3.019,3.055c0.763,1.274,1.311,2.725,1.642,4.355
		s0.497,3.312,0.497,5.042c0,4.177-0.357,8.774-1.07,13.789c-0.713,5.019-1.846,10.072-3.398,15.165
		c-1.554,5.093-3.515,10.021-5.883,14.783c-2.368,4.764-5.209,8.99-8.519,12.682c-3.312,3.693-7.104,6.66-11.383,8.902
		c-4.279,2.24-9.066,3.359-14.363,3.359c-5.907,0-10.581-1.512-14.018-4.545c-3.438-3.031-5.157-7.652-5.157-13.865
		c0-0.865,0.051-1.975,0.153-3.324s0.305-2.762,0.61-4.24L178.302,82.985z"/>
	<path fill="none" stroke="#8DC63F" stroke-width="8" stroke-linecap="round" stroke-linejoin="round" stroke-miterlimit="10" d="
		M320.398,101.777c-3.057,3.209-7.003,5.934-11.842,8.175s-10.136,3.846-15.89,4.813c-0.611,7.231-2,13.75-4.165,19.556
		c-2.165,5.807-4.901,10.748-8.211,14.822c-3.312,4.074-7.105,7.207-11.384,9.396c-4.277,2.191-8.812,3.285-13.598,3.285
		c-3.617,0-6.966-0.447-10.047-1.336c-3.082-0.893-5.729-2.318-7.944-4.279s-3.949-4.508-5.195-7.641
		c-1.248-3.131-1.872-6.939-1.872-11.42c0-3.057,0.318-6.533,0.955-10.429c0.638-3.896,1.654-7.907,3.055-12.032
		c1.401-4.125,3.21-8.161,5.426-12.109c2.216-3.946,4.913-7.473,8.098-10.58c3.181-3.108,6.862-5.617,11.039-7.525
		c4.175-1.91,8.938-2.865,14.286-2.865c13.394,0,20.092,8.328,20.092,24.981v0.152c0.255,0.104,0.497,0.154,0.726,0.154
		c0.229,0,0.547,0,0.956,0c1.832,0,3.805-0.268,5.919-0.802c2.113-0.535,4.241-1.235,6.381-2.102
		c2.138-0.866,4.228-1.872,6.264-3.017c2.036-1.147,3.896-2.304,5.578-3.476L320.398,101.777z M279.679,115.224
		c-1.629-0.407-2.737-1.21-3.324-2.406c-0.585-1.196-0.877-2.585-0.877-4.165c0-2.188,0.444-3.983,1.337-5.384
		c0.891-1.401,2.073-2.433,3.553-3.095c-0.104-1.681-0.281-3.094-0.536-4.239c-0.255-1.147-0.61-2.088-1.068-2.827
		c-0.459-0.739-1.032-1.26-1.719-1.567c-0.689-0.305-1.566-0.458-2.635-0.458c-1.887,0-3.695,0.726-5.426,2.178
		c-1.732,1.451-3.374,3.375-4.928,5.767c-1.555,2.395-2.979,5.132-4.277,8.212c-1.3,3.083-2.406,6.254-3.323,9.513
		c-0.918,3.259-1.631,6.48-2.14,9.663c-0.509,3.185-0.764,6.073-0.764,8.67s0.14,4.711,0.42,6.342
		c0.279,1.631,0.737,2.916,1.375,3.857c0.637,0.943,1.463,1.594,2.484,1.949c1.018,0.357,2.265,0.533,3.742,0.533
		c1.883,0,3.781-0.84,5.691-2.521c1.91-1.68,3.68-3.971,5.309-6.873c1.631-2.904,3.069-6.342,4.317-10.315
		C278.138,124.086,279.067,119.808,279.679,115.224z"/>
	<path fill="none" stroke="#8DC63F" stroke-width="8" stroke-linecap="round" stroke-linejoin="round" stroke-miterlimit="10" d="
		M295.188,161.215l16.579-78.23h22.537l-1.985,9.701c1.374-1.222,2.775-2.418,4.2-3.59c1.426-1.17,2.917-2.202,4.471-3.093
		c1.551-0.892,3.171-1.617,4.851-2.178c1.68-0.56,3.461-0.84,5.347-0.84c1.782,0,3.348,0.333,4.698,0.993
		c1.351,0.663,2.481,1.528,3.401,2.597c0.916,1.069,1.602,2.317,2.062,3.743c0.458,1.428,0.686,2.904,0.686,4.431
		c0,1.376-0.228,2.74-0.686,4.089c-0.461,1.35-1.161,2.558-2.102,3.628c-0.943,1.069-2.129,1.948-3.554,2.635
		c-1.426,0.688-3.081,1.031-4.965,1.031c-1.479,0-2.61-0.255-3.401-0.764c-0.79-0.509-1.386-1.146-1.793-1.91
		c-0.41-0.764-0.701-1.591-0.881-2.482c-0.176-0.891-0.368-1.72-0.571-2.484c-0.204-0.763-0.47-1.399-0.803-1.909
		c-0.332-0.509-0.877-0.765-1.644-0.765c-2.393,0-4.404,0.548-6.033,1.642c-1.632,1.096-3.413,2.535-5.348,4.316l-12.53,59.438
		H295.188z"/>
</g>
<g>
	<path fill="#FFFFFF" d="M27.342,161.215l22.537-104.51c-3.006,0.103-5.756,0.675-8.251,1.718c-2.495,1.044-4.635,2.789-6.417,5.232
		c-1.784,2.446-3.171,5.73-4.164,9.856c-0.992,4.126-1.489,9.321-1.489,15.584c0,1.987,0.114,3.605,0.343,4.851
		c0.23,1.25,0.484,2.243,0.765,2.98c0.279,0.74,0.535,1.312,0.765,1.719c0.229,0.409,0.343,0.764,0.343,1.07
		c-2.699,0-5.094-0.268-7.181-0.802c-2.09-0.535-3.846-1.388-5.271-2.56c-1.427-1.17-2.509-2.725-3.247-4.659
		c-0.738-1.937-1.107-4.33-1.107-7.183c0-5.195,0.967-10.237,2.903-15.126c1.935-4.889,5.028-9.217,9.281-12.987
		c4.253-3.768,9.767-6.799,16.54-9.091s14.999-3.438,24.676-3.438c1.579,0,3.35,0.103,5.311,0.305
		c1.959,0.205,4.049,0.421,6.265,0.65c2.215,0.229,4.545,0.446,6.99,0.649c2.444,0.204,4.914,0.306,7.41,0.306
		c2.444,0,4.852-0.14,7.22-0.421c2.368-0.279,4.646-0.775,6.837-1.489c-0.51,1.63-1.006,3.399-1.49,5.309
		c-0.483,1.91-1.21,3.757-2.177,5.539c-0.968,1.784-2.318,3.4-4.049,4.851c-1.732,1.452-4.101,2.483-7.105,3.095
		c-3.718,0-7.386-0.281-11.001-0.841c-3.616-0.56-7.258-1.272-10.925-2.139l-6.569,31.093h22.842l-2.521,11.613H62.561
		l-12.682,58.825H27.342z"/>
	<path fill="#FFFFFF" d="M174.251,133.176c-1.477,4.23-3.081,7.896-4.812,11.002c-1.731,3.107-3.527,5.73-5.386,7.869
		c-1.859,2.139-3.757,3.871-5.691,5.195c-1.936,1.326-3.819,2.344-5.653,3.057c-1.833,0.713-3.59,1.197-5.271,1.451
		c-1.681,0.254-3.208,0.381-4.584,0.381c-4.431,0-7.958-1.207-10.58-3.629c-2.624-2.416-4.215-5.998-4.775-10.734
		c-1.273,1.785-2.673,3.529-4.202,5.234c-1.527,1.707-3.234,3.236-5.118,4.584c-1.885,1.35-3.985,2.445-6.303,3.285
		s-4.877,1.26-7.677,1.26c-2.701,0-5.299-0.432-7.793-1.297c-2.497-0.865-4.712-2.293-6.646-4.279
		c-1.937-1.986-3.489-4.584-4.66-7.793c-1.172-3.207-1.758-7.131-1.758-11.766c0-3.564,0.357-7.384,1.069-11.459
		c0.715-4.073,1.809-8.148,3.286-12.223c1.477-4.074,3.323-7.984,5.538-11.727c2.216-3.744,4.812-7.054,7.793-9.932
		c2.979-2.877,6.353-5.169,10.122-6.876c3.769-1.705,7.919-2.558,12.453-2.558c4.431,0,7.651,0.763,9.664,2.291
		c2.012,1.528,3.018,3.413,3.018,5.652v1.147l1.68-8.327h22.538l-11.23,53.171c-0.255,0.867-0.434,1.719-0.535,2.559
		c-0.103,0.842-0.152,1.67-0.152,2.484c0,4.482,2.139,6.723,6.417,6.723c1.528,0,2.941-0.395,4.24-1.184
		c1.299-0.791,2.482-1.846,3.553-3.172c1.069-1.324,2.011-2.891,2.826-4.699c0.814-1.807,1.501-3.705,2.062-5.691H174.251z
		 M134.831,97.882c0-0.459-0.103-1.031-0.305-1.72c-0.204-0.686-0.548-1.348-1.031-1.985c-0.485-0.636-1.135-1.17-1.949-1.604
		c-0.814-0.431-1.859-0.65-3.132-0.65c-2.19,0-4.267,0.714-6.227,2.139c-1.961,1.427-3.756,3.324-5.386,5.692
		s-3.082,5.056-4.354,8.06c-1.273,3.007-2.356,6.1-3.247,9.282c-0.892,3.184-1.566,6.315-2.024,9.396
		c-0.458,3.083-0.688,5.844-0.688,8.29c0,3.006,0.279,5.324,0.84,6.953s1.234,2.84,2.025,3.627c0.789,0.791,1.643,1.262,2.559,1.414
		c0.917,0.152,1.731,0.229,2.445,0.229c1.171,0,2.406-0.291,3.705-0.879c1.299-0.584,2.546-1.449,3.743-2.596
		c1.196-1.146,2.292-2.584,3.285-4.316c0.993-1.73,1.744-3.744,2.254-6.037L134.831,97.882z"/>
	<path fill="#FFFFFF" d="M178.302,82.985h22.536l-11.23,53.171c-0.254,1.174-0.458,2.229-0.61,3.17
		c-0.153,0.943-0.23,1.771-0.23,2.484c0,1.578,0.422,2.84,1.26,3.781c0.842,0.943,2.204,1.412,4.089,1.412
		c2.546,0,4.989-0.891,7.334-2.674c2.342-1.781,4.507-4.137,6.494-7.064c1.984-2.93,3.793-6.252,5.424-9.971
		c1.63-3.717,3.017-7.512,4.163-11.384c1.146-3.869,2.036-7.651,2.674-11.344c0.636-3.692,0.955-6.964,0.955-9.818
		c-0.102,0.256-0.37,0.485-0.803,0.689s-0.904,0.37-1.413,0.497c-0.509,0.127-1.02,0.215-1.527,0.266
		c-0.51,0.051-0.917,0.077-1.223,0.077c-0.918,0-1.732-0.241-2.444-0.726c-0.715-0.482-1.312-1.108-1.795-1.872
		c-0.485-0.763-0.84-1.617-1.07-2.56c-0.229-0.94-0.345-1.872-0.345-2.788c0-2.445,0.777-4.47,2.331-6.074
		c1.552-1.604,4.011-2.406,7.373-2.406c1.883,0,3.449,0.38,4.697,1.146c1.249,0.763,2.255,1.783,3.019,3.055
		c0.763,1.274,1.311,2.725,1.642,4.355s0.497,3.312,0.497,5.042c0,4.177-0.357,8.774-1.07,13.789
		c-0.713,5.019-1.846,10.072-3.398,15.165c-1.554,5.093-3.515,10.021-5.883,14.783c-2.368,4.764-5.209,8.99-8.519,12.682
		c-3.312,3.693-7.104,6.66-11.383,8.902c-4.279,2.24-9.066,3.359-14.363,3.359c-5.907,0-10.581-1.512-14.018-4.545
		c-3.438-3.031-5.157-7.652-5.157-13.865c0-0.865,0.051-1.975,0.153-3.324s0.305-2.762,0.61-4.24L178.302,82.985z"/>
	<path fill="#FFFFFF" d="M320.398,101.777c-3.057,3.209-7.003,5.934-11.842,8.175s-10.136,3.846-15.89,4.813
		c-0.611,7.231-2,13.75-4.165,19.556c-2.165,5.807-4.901,10.748-8.211,14.822c-3.312,4.074-7.105,7.207-11.384,9.396
		c-4.277,2.191-8.812,3.285-13.598,3.285c-3.617,0-6.966-0.447-10.047-1.336c-3.082-0.893-5.729-2.318-7.944-4.279
		s-3.949-4.508-5.195-7.641c-1.248-3.131-1.872-6.939-1.872-11.42c0-3.057,0.318-6.533,0.955-10.429
		c0.638-3.896,1.654-7.907,3.055-12.032c1.401-4.125,3.21-8.161,5.426-12.109c2.216-3.946,4.913-7.473,8.098-10.58
		c3.181-3.108,6.862-5.617,11.039-7.525c4.175-1.91,8.938-2.865,14.286-2.865c13.394,0,20.092,8.328,20.092,24.981v0.152
		c0.255,0.104,0.497,0.154,0.726,0.154c0.229,0,0.547,0,0.956,0c1.832,0,3.805-0.268,5.919-0.802
		c2.113-0.535,4.241-1.235,6.381-2.102c2.138-0.866,4.228-1.872,6.264-3.017c2.036-1.147,3.896-2.304,5.578-3.476L320.398,101.777z
		 M279.679,115.224c-1.629-0.407-2.737-1.21-3.324-2.406c-0.585-1.196-0.877-2.585-0.877-4.165c0-2.188,0.444-3.983,1.337-5.384
		c0.891-1.401,2.073-2.433,3.553-3.095c-0.104-1.681-0.281-3.094-0.536-4.239c-0.255-1.147-0.61-2.088-1.068-2.827
		c-0.459-0.739-1.032-1.26-1.719-1.567c-0.689-0.305-1.566-0.458-2.635-0.458c-1.887,0-3.695,0.726-5.426,2.178
		c-1.732,1.451-3.374,3.375-4.928,5.767c-1.555,2.395-2.979,5.132-4.277,8.212c-1.3,3.083-2.406,6.254-3.323,9.513
		c-0.918,3.259-1.631,6.48-2.14,9.663c-0.509,3.185-0.764,6.073-0.764,8.67s0.14,4.711,0.42,6.342
		c0.279,1.631,0.737,2.916,1.375,3.857c0.637,0.943,1.463,1.594,2.484,1.949c1.018,0.357,2.265,0.533,3.742,0.533
		c1.883,0,3.781-0.84,5.691-2.521c1.91-1.68,3.68-3.971,5.309-6.873c1.631-2.904,3.069-6.342,4.317-10.315
		C278.138,124.086,279.067,119.808,279.679,115.224z"/>
	<path fill="#FFFFFF" d="M295.188,161.215l16.579-78.23h22.537l-1.985,9.701c1.374-1.222,2.775-2.418,4.2-3.59
		c1.426-1.17,2.917-2.202,4.471-3.093c1.551-0.892,3.171-1.617,4.851-2.178c1.68-0.56,3.461-0.84,5.347-0.84
		c1.782,0,3.348,0.333,4.698,0.993c1.351,0.663,2.481,1.528,3.401,2.597c0.916,1.069,1.602,2.317,2.062,3.743
		c0.458,1.428,0.686,2.904,0.686,4.431c0,1.376-0.228,2.74-0.686,4.089c-0.461,1.35-1.161,2.558-2.102,3.628
		c-0.943,1.069-2.129,1.948-3.554,2.635c-1.426,0.688-3.081,1.031-4.965,1.031c-1.479,0-2.61-0.255-3.401-0.764
		c-0.79-0.509-1.386-1.146-1.793-1.91c-0.41-0.764-0.701-1.591-0.881-2.482c-0.176-0.891-0.368-1.72-0.571-2.484
		c-0.204-0.763-0.47-1.399-0.803-1.909c-0.332-0.509-0.877-0.765-1.644-0.765c-2.393,0-4.404,0.548-6.033,1.642
		c-1.632,1.096-3.413,2.535-5.348,4.316l-12.53,59.438H295.188z"/>
</g>
</svg>
