<?xml version="1.0" encoding="utf-8"?>
<!-- Generator: Adobe Illustrator 16.0.0, SVG Export Plug-In . SVG Version: 6.00 Build 0)  -->
<!DOCTYPE svg PUBLIC "-//W3C//DTD SVG 1.1//EN" "http://www.w3.org/Graphics/SVG/1.1/DTD/svg11.dtd">
<svg version="1.1" id="Layer_1" xmlns="http://www.w3.org/2000/svg" xmlns:xlink="http://www.w3.org/1999/xlink" x="0px" y="0px"
	 width="1486.669px" height="300px" viewBox="0 0 1486.669 300" enable-background="new 0 0 1486.669 300" xml:space="preserve">
<g>
	
		<circle fill="none" stroke="#8DC63F" stroke-width="3" stroke-linecap="round" stroke-linejoin="round" stroke-miterlimit="10" cx="-630.748" cy="445.496" r="17.583"/>
	<path fill="none" stroke="#8DC63F" stroke-width="3" stroke-linecap="round" stroke-linejoin="round" stroke-miterlimit="10" d="
		M-656.998,479.745c0,0-18.333,10.333-15.833,58.334c0,0,12-52,23.5-48.5s6,124.5,6,124.5s4.5-69.5,14-68.5s14.5,65.5,14.5,65.5
		s-5.5-124,8-123s28.5,5,45,13.5S-620.998,447.245-656.998,479.745z"/>
</g>
<path fill="none" stroke="#00A99D" stroke-width="16" stroke-linecap="round" stroke-linejoin="round" stroke-miterlimit="10" d="
	M739.909,283.835c-9.248,0-17.258-2.204-23.879-6.56c-2.211,1.288-4.447,2.373-6.672,3.237c-3.33,1.292-6.654,2.196-9.877,2.685
	c-2.789,0.423-5.463,0.638-7.949,0.638c-7.982,0-15.156-2.133-21.002-6.208c-2.484,1.444-5.133,2.678-7.912,3.684
	c-4.617,1.674-9.65,2.524-14.955,2.524c-5.115,0-10.115-0.837-14.861-2.486c-5.525-1.915-10.461-5.071-14.66-9.378
	c-4.012-4.123-7.17-9.291-9.385-15.362c-0.51-1.394-0.957-2.845-1.342-4.354l-3.461,16.064c-1.811,8.39-9.354,14.477-17.934,14.477
	h-25.576c-5.564,0-10.764-2.482-14.266-6.811c-3.508-4.348-4.838-9.956-3.664-15.398l10.564-48.988
	c-0.104-0.025-0.207-0.049-0.307-0.077c-4.979-1.274-9.383-3.464-13.084-6.51c-4.098-3.36-7.186-7.711-9.172-12.921
	c-1.654-4.329-2.461-9.136-2.461-14.681c0-8.195,1.545-16.245,4.586-23.923c3.248-8.212,8.436-15.518,15.418-21.709
	c6.646-5.892,15.078-10.589,25.061-13.967c9.547-3.231,20.947-4.869,33.881-4.869c2.402,0,5.062,0.149,7.912,0.443l7.113,0.737
	c2.43,0.252,4.975,0.489,7.559,0.703c2.268,0.189,4.459,0.285,6.523,0.285c2.289,0,4.445-0.118,6.406-0.35
	c1.484-0.176,2.906-0.483,4.232-0.916c1.834-0.598,3.748-0.903,5.684-0.903c4.861,0,9.441,1.882,12.896,5.299
	c4.902,4.843,6.672,11.943,4.611,18.524c-0.471,1.508-0.949,3.21-1.418,5.055c-0.92,3.633-2.309,7.179-4.131,10.532
	c-0.893,1.646-1.92,3.226-3.078,4.732c2.725-0.413,5.518-0.62,8.373-0.62c4.398,0,8.311,0.465,11.822,1.414
	c1.451-0.363,2.949-0.548,4.479-0.548h25.574c3.66,0,7.164,1.074,10.129,3.041c2.922-1.93,6.4-3.041,10.074-3.041h25.574
	c1.855,0,3.67,0.275,5.395,0.804c3.889-2.41,9.301-4.359,16.627-4.359c5.553,0,10.566,1.344,14.902,3.996
	c3.959,2.423,7.186,5.681,9.584,9.684c0.021,0.033,0.041,0.066,0.059,0.1c3.576-2.674,7.459-4.973,11.609-6.87
	c7.123-3.261,15.145-4.914,23.84-4.914c11.562,0,21.174,3.671,28.188,10.408c3.262-5.349,9.168-8.848,15.682-8.848H908.8
	c2.736,0,5.389,0.602,7.795,1.731c3.631-1.15,7.449-1.731,11.363-1.731c4.834,0,9.344,1.01,13.406,3.001
	c3.77,1.847,7.037,4.363,9.707,7.474c2.633,3.074,4.607,6.625,5.877,10.563c1.107,3.439,1.664,7.022,1.664,10.659
	c0,3.563-0.588,7.107-1.748,10.53c-1.309,3.837-3.322,7.312-5.986,10.342c-2.703,3.065-6.008,5.549-9.834,7.395
	c-4.111,1.985-8.689,2.992-13.607,2.992c-3.273,0-6.312-0.496-9.084-1.48l-10.42,49.432c-1.779,8.437-9.33,14.558-17.949,14.558
	h-25.576c-5.555,0-10.748-2.476-14.248-6.792c-0.463-0.572-0.889-1.165-1.277-1.779c-1.912,1.301-3.896,2.477-5.943,3.525
	c-7.436,3.807-15.439,5.738-23.785,5.738c-5.801,0-11.348-0.75-16.484-2.232c-6.123-1.773-11.533-4.712-16.088-8.743
	c-2.182-1.929-4.135-4.101-5.85-6.501c-4.734,4.824-10.105,8.824-16.01,11.916C757.233,281.849,748.886,283.835,739.909,283.835z"/>
<g>
	<path fill="none" stroke="#8DC63F" stroke-width="7" stroke-linecap="round" stroke-linejoin="round" stroke-miterlimit="10" d="
		M600.413,197.697l-14.391,66.754h-25.576l25.576-118.6c-3.41,0.116-6.533,0.766-9.363,1.95c-2.832,1.185-5.262,3.164-7.281,5.939
		c-2.025,2.772-3.6,6.501-4.727,11.184c-1.127,4.68-1.691,10.576-1.691,17.686c0,2.254,0.131,4.089,0.391,5.506
		c0.262,1.417,0.547,2.543,0.867,3.38c0.316,0.84,0.607,1.488,0.869,1.951c0.258,0.463,0.387,0.866,0.387,1.214
		c-3.062,0-5.779-0.304-8.148-0.911c-2.371-0.606-4.365-1.575-5.982-2.905c-1.617-1.329-2.846-3.09-3.684-5.289
		c-0.838-2.194-1.258-4.912-1.258-8.148c0-5.897,1.098-11.618,3.295-17.168c2.197-5.548,5.707-10.459,10.533-14.738
		c4.826-4.277,11.082-7.716,18.771-10.317c7.686-2.602,17.02-3.901,28.002-3.901c1.791,0,3.799,0.116,6.027,0.346
		c2.225,0.232,4.594,0.479,7.107,0.737c2.516,0.261,5.16,0.507,7.934,0.737c2.773,0.231,5.576,0.347,8.41,0.347
		c2.773,0,5.504-0.158,8.191-0.477c2.689-0.317,5.273-0.881,7.76-1.69c-0.578,1.85-1.141,3.858-1.689,6.025
		c-0.551,2.167-1.375,4.263-2.471,6.286c-1.1,2.023-2.631,3.858-4.596,5.505c-1.967,1.647-4.652,2.818-8.062,3.511
		c-4.219,0-8.383-0.316-12.484-0.953c-4.105-0.636-8.236-1.444-12.398-2.428l-7.455,35.286h25.92l-2.861,13.179H600.413z"/>
	<path fill="none" stroke="#8DC63F" stroke-width="7" stroke-linecap="round" stroke-linejoin="round" stroke-miterlimit="10" d="
		M789.327,203.201c-0.807,5.695-2.094,11.431-3.855,17.21c-1.764,5.78-3.988,11.373-6.678,16.777
		c-2.688,5.405-5.908,10.203-9.666,14.391c-3.758,4.192-8.062,7.555-12.918,10.1c-4.855,2.542-10.291,3.812-16.301,3.812
		c-6.703,0-12.006-1.715-15.906-5.158c-2.807-2.471-4.586-5.894-5.375-10.234c-0.994,1.444-2.006,2.767-3.035,3.95
		c-2.109,2.428-4.264,4.393-6.461,5.895c-2.197,1.504-4.332,2.66-6.416,3.468c-2.08,0.809-4.072,1.359-5.98,1.648
		c-1.906,0.289-3.641,0.431-5.203,0.431c-5.027,0-9.029-1.369-12.006-4.118c-2.977-2.742-4.783-6.805-5.42-12.178
		c-1.443,2.023-3.033,4.003-4.768,5.939s-3.672,3.671-5.809,5.2c-2.139,1.532-4.523,2.776-7.154,3.728
		c-2.631,0.954-5.533,1.43-8.711,1.43c-3.064,0-6.012-0.489-8.844-1.471c-2.832-0.981-5.348-2.603-7.543-4.855
		c-2.197-2.255-3.961-5.202-5.289-8.843c-1.328-3.641-1.992-8.092-1.992-13.352c0-4.044,0.404-8.38,1.213-13.005
		c0.809-4.624,2.051-9.247,3.729-13.871c1.676-4.623,3.771-9.06,6.285-13.308c2.514-4.25,5.461-8.006,8.844-11.271
		c3.379-3.266,7.209-5.867,11.486-7.803c4.277-1.937,8.988-2.905,14.131-2.905c5.029,0,8.686,0.866,10.969,2.602
		c2.281,1.732,3.424,3.872,3.424,6.415v1.299l1.908-9.45h25.574l-12.742,60.343c-0.291,0.984-0.492,1.95-0.609,2.904
		c-0.115,0.955-0.172,1.894-0.172,2.819c0,5.086,2.426,7.628,7.283,7.628c1.732,0,3.338-0.448,4.811-1.343
		c1.475-0.896,2.818-2.094,4.033-3.598c1.213-1.503,2.279-3.281,3.205-5.334c0.926-2.049,1.705-4.204,2.342-6.458h0.021
		l12.031-56.96h25.574l-12.744,60.343c-0.289,1.331-0.521,2.528-0.693,3.596c-0.174,1.071-0.262,2.01-0.262,2.819
		c0,1.792,0.48,3.223,1.432,4.291c0.953,1.072,2.5,1.604,4.639,1.604c2.891,0,5.662-1.011,8.322-3.034
		c2.656-2.021,5.115-4.695,7.371-8.019c2.252-3.323,4.305-7.094,6.154-11.315c1.85-4.218,3.424-8.525,4.725-12.917
		c1.301-4.392,2.311-8.684,3.033-12.875c0.723-4.189,1.086-7.903,1.086-11.139c-0.117,0.289-0.42,0.55-0.91,0.779
		c-0.492,0.231-1.027,0.419-1.605,0.563c-0.578,0.146-1.156,0.248-1.732,0.304c-0.58,0.059-1.041,0.086-1.389,0.086
		c-1.039,0-1.965-0.273-2.773-0.821c-0.811-0.551-1.49-1.258-2.037-2.125c-0.551-0.867-0.953-1.834-1.215-2.904
		c-0.26-1.071-0.391-2.125-0.391-3.166c0-2.773,0.881-5.071,2.645-6.892c1.762-1.822,4.553-2.733,8.369-2.733
		c2.135,0,3.912,0.436,5.33,1.302c1.416,0.866,2.559,2.023,3.424,3.468c0.867,1.446,1.488,3.094,1.865,4.942
		c0.375,1.85,0.564,3.758,0.564,5.722C790.544,192.293,790.138,197.51,789.327,203.201z"/>
	<path fill="none" stroke="#8DC63F" stroke-width="7" stroke-linecap="round" stroke-linejoin="round" stroke-miterlimit="10" d="
		M939.491,193.665c-0.521,1.533-1.316,2.904-2.385,4.119c-1.072,1.212-2.414,2.21-4.031,2.99c-1.619,0.781-3.498,1.171-5.637,1.171
		c-1.676,0-2.961-0.289-3.857-0.868c-0.898-0.577-1.576-1.3-2.037-2.167c-0.465-0.867-0.795-1.806-0.998-2.817
		c-0.201-1.011-0.418-1.952-0.65-2.819c-0.23-0.867-0.533-1.588-0.91-2.168c-0.377-0.578-0.996-0.866-1.863-0.866
		c-2.717,0-5,0.623-6.848,1.864c-1.854,1.244-3.873,2.876-6.068,4.898l-14.221,67.449h-25.576l12.051-56.859
		c-4.631,1.854-9.59,3.255-14.91,4.149c-0.693,8.207-2.271,15.604-4.727,22.193c-2.457,6.589-5.562,12.197-9.32,16.82
		c-3.758,4.623-8.062,8.178-12.918,10.662c-4.854,2.487-10,3.728-15.43,3.728c-4.105,0-7.906-0.507-11.404-1.516
		c-3.496-1.013-6.5-2.63-9.014-4.856c-2.516-2.223-4.482-5.113-5.896-8.668c-1.416-3.554-2.125-7.875-2.125-12.962
		c0-3.468,0.361-7.412,1.084-11.833c0.725-4.421,1.877-8.974,3.467-13.655c1.592-4.682,3.645-9.262,6.156-13.743
		c2.518-4.478,5.576-8.48,9.189-12.008c3.611-3.523,7.789-6.37,12.529-8.538c4.738-2.168,10.145-3.252,16.213-3.252
		c15.201,0,22.801,9.449,22.801,28.35v0.173c0.287,0.117,0.564,0.175,0.822,0.175c0.262,0,0.621,0,1.086,0
		c2.078,0,4.318-0.304,6.717-0.911c2.4-0.606,4.812-1.401,7.242-2.385c0.055-0.024,0.107-0.051,0.164-0.074l5.035-23.769H908.8
		l-2.254,11.012c1.561-1.388,3.148-2.745,4.768-4.075c1.617-1.329,3.311-2.5,5.072-3.512c1.764-1.009,3.598-1.833,5.504-2.47
		c1.906-0.636,3.93-0.955,6.068-0.955c2.021,0,3.803,0.377,5.332,1.128c1.533,0.751,2.818,1.732,3.861,2.947
		c1.039,1.215,1.818,2.632,2.34,4.249c0.52,1.617,0.777,3.294,0.777,5.029C940.269,190.587,940.011,192.133,939.491,193.665z"/>
	<path fill="none" stroke="#8DC63F" stroke-width="7" stroke-linejoin="round" stroke-miterlimit="10" d="M836.79,212.596
		c0.504,1.025,1.264,2.194,2.402,3.278c-0.582,3.112-1.311,6.082-2.186,8.867c-1.266,4.03-2.723,7.525-4.33,10.386
		c-1.453,2.592-2.986,4.605-4.553,5.983c-1.051,0.924-1.701,1.127-1.861,1.127c-0.662,0-1.131-0.046-1.445-0.1
		c-0.094-0.26-0.215-0.682-0.324-1.315c-0.17-0.997-0.373-2.851-0.373-6.019c0-2.565,0.26-5.507,0.779-8.74
		c0.533-3.337,1.289-6.763,2.254-10.18c0.961-3.417,2.133-6.774,3.484-9.98c1.307-3.101,2.746-5.872,4.277-8.231
		c1.383-2.124,2.801-3.809,4.229-5.002c0.309-0.261,0.598-0.46,0.861-0.6c-0.863,0.856-1.639,1.821-2.314,2.889
		c-1.732,2.714-2.607,6.029-2.607,9.848C835.083,207.662,835.655,210.281,836.79,212.596z"/>
	<path fill="none" stroke="#8DC63F" stroke-width="7" stroke-linejoin="round" stroke-miterlimit="10" d="M667.142,231.124
		c-0.426,1.907-1.029,3.555-1.801,4.899c-0.791,1.377-1.633,2.498-2.506,3.336c-0.781,0.746-1.551,1.291-2.299,1.631
		c-0.762,0.341-1.191,0.378-1.342,0.378c-0.189,0-0.475-0.012-0.883-0.059c-0.123-0.232-0.305-0.624-0.514-1.229
		c-0.172-0.502-0.572-2.057-0.572-5.625c0-2.416,0.236-5.236,0.703-8.383c0.475-3.196,1.188-6.496,2.117-9.814
		c0.92-3.297,2.062-6.56,3.389-9.693c1.254-2.962,2.691-5.626,4.266-7.916c1.395-2.023,2.898-3.631,4.473-4.775
		c1.449-1.052,2.523-1.1,3.102-1.097L667.142,231.124z"/>
</g>
<g>
	
		<path fill-rule="evenodd" clip-rule="evenodd" fill="none" stroke="#00A99D" stroke-width="16" stroke-linecap="round" stroke-linejoin="round" stroke-miterlimit="10" d="
		M-15.248,220.262c0-18.309-0.349-94.476,1.516-95.601c9.307-5.617,64.534-4.834,74.451-4.834c16.791,0,18.267,8.418,18.353,18.418
		c0.228,26.76,0.431,53.518,0.643,80.277c0.009,1.081,0.001,2.16,0.001,3.355c2.876,0,3.61-1.329,3.643-3.838
		c0.103-7.865,0.531-15.726,0.641-23.592c0.049-3.493,1.029-5.476,4.991-5.05c2.149,0.231,4.359,0.033,6.527-0.147
		c0.865-0.071,11.585,0.16,12.941,0.192c6.515,0.147,13.034,0.065,19.905,0.065c0,4.859,0,9.654,0,14.787
		c3.35,0.47,21.588,0.316,25.247,0.316c0.504-2.056,0.055-56.435-0.195-56.657c1.461-2.277,4.743-10.417,4.744-12.208
		c0.003-1.935,12.828-11.176,16.33-10.838c1.198,0.115,9.186,0.592,10.836,3.415c1.2,2.057,11.043,11.175,11.928,13.439
		c0.512,1.308,0.865,2.751,0.925,4.15c0.434,10.033,0.863,57.729,1.077,67.769c0.059,2.735,0.964,3.528,3.627,3.423
		c4.229-0.165,8.475,0.127,12.713,0.088c2.341-0.02,10.424,1.484,11.563,1.328c2.95-0.402,7.081,0.634,8.61-0.955
		c1.569-1.631,0.657-5.689,0.756-8.688c0.273-8.228,0.581-16.455,0.713-24.686c0.038-2.381,0.659-3.751,3.26-3.518
		c3.295,0.296,3.94-1.43,3.957-4.392c0.039-7.26,0.499-14.517,0.646-21.777c0.049-2.415,0.88-3.424,3.394-3.489
		c11.977-0.305,23.953-0.694,35.922-1.188c2.567-0.107,3.464,1.09,3.68,3.307c0.586,6.013,1.313,12.018,1.682,18.044
		c0.207,3.377,1.616,5.582,4.851,6.206c2.812,0.543,3.229,2.13,3.224,4.625c-0.067,26.281-0.042,52.562-0.042,78.841
		c0,1.424,0,2.846,0,4.557c1.654,0.079,2.964,0.077,4.256,0.221c2.384,0.267,3.358-0.657,3.766-3.124
		c2.72-16.459,5.948-32.839,8.339-49.342c1.749-12.056,3.615-24.286,3.359-36.395c-0.342-16.267-2.475-32.512-4.227-48.725
		c-1.26-11.653-3.218-23.229-4.699-34.861c-0.297-2.32-1.134-3.413-3.445-3.811c-2.971-0.509-5.908-1.282-8.805-2.124
		c-1.097-0.319-2.044-1.147-3.528-2.02c1.633-1.124,2.589-1.782,3.556-2.447c0.245-3.332-0.935-5.068-4.621-5.242
		c-2.671-0.126-5.297-1.202-7.945-1.854c-0.085-0.464-0.17-0.927-0.256-1.39c1.337-0.631,2.646-1.345,4.026-1.871
		c1.748-0.667,3.631-0.746,3.702-3.573c0.026-1.032,2.178-2.398,3.611-2.939c7.108-2.688,14.303-5.152,21.785-7.809
		c-1.064-1.92-1.856-3.342-2.354-4.235c0.878-1.882,1.221-3.738,2.337-4.708c1.188-1.031,3.268-1.943,4.671-1.627
		c2.886,0.65,3.597-0.824,3.772-2.917c0.585-6.869,1.051-13.751,1.448-20.635c0.067-1.15-0.544-2.326-0.607-3.501
		c-0.05-0.963-0.06-2.496,0.468-2.795c0.904-0.512,2.467-0.661,3.324-0.187c0.574,0.318,0.57,1.978,0.545,3.03
		c-0.063,2.623-0.508,5.25-0.402,7.86c0.258,6.334,0.739,12.658,1.139,19.069c6.344-2.819,7.283,3.67,11.177,4.66
		c-0.678,1.982-1.282,3.754-2.136,6.246c5.219,1.61,10.248,3.135,15.26,4.717c2.75,0.868,5.503,1.751,8.186,2.805
		c0.807,0.316,2.012,1.294,1.955,1.86c-0.373,3.663,2.184,4.307,4.745,5.222c0.773,0.275,1.757,1.274,1.774,1.962
		c0.016,0.673-0.961,1.739-1.715,1.99c-2.046,0.677-4.191,1.083-6.321,1.472c-2.937,0.534-3.798,2.55-1.863,4.913
		c1.562,1.907,0.804,2.752-1.143,3.315c-3.488,1.008-7.051,1.825-10.423,3.129c-1.114,0.43-2.333,2.03-2.507,3.238
		c-2.638,18.548-5.689,37.066-7.431,55.704c-1.245,13.308-1.084,26.794-0.8,40.183c0.266,12.568,1.487,25.116,2.349,37.669
		c0.473,6.877,1.121,13.741,1.582,20.619c0.144,2.169,0.777,3.321,3.235,3.23c4.212-0.155,8.437-0.043,12.988-0.043
		c0.296-3.656,0.668-6.982,0.819-10.316c0.298-6.65,0.471-13.306,0.705-19.959c0.159-4.488,1.931-5.42,5.991-3.52
		c7.709,3.609,13.596,9.588,19.934,14.987c0.726,0.619,1.462,1.223,2.794,2.33c0.092-1.802,0.207-3.03,0.208-4.256
		c0.011-17.32,0.082-34.639-0.062-51.958c-0.026-3.321,0.916-4.325,4.295-4.235c9.198,0.245,23.787,0.181,24.846,0.378
		c3.45,0.646,0.535,83.317,0.535,84.614c1.654-0.382,18.182-0.482,19.021-0.678c1.388-36.107,2.768-71.954,4.152-107.984
		c2.393-0.169,4.05-0.287,5.676-0.4c1.752-7.078,8.093-10.536,12.221-16.657c3.384,4.146,6.614,7.683,9.336,11.574
		c2.132,3.047,4.677,4.363,8.252,3.789c3.393-0.544,3.493,1.203,3.541,4.02c0.197,11.582,0.75,23.157,1.195,35.275
		c4.496,0,8.442-0.024,12.388,0.006c4.634,0.034,5.752,1.142,5.796,5.776c0.043,4.24,0.116,17.71-0.008,21.946
		c-0.064,2.178,11.663-2.351,11.764,0.464c0.302,8.468-3.507,33.123-3.241,37.76c3.104-1.805,25.297-0.466,27.907-2.225"/>
</g>
<g>
	
		<path fill-rule="evenodd" clip-rule="evenodd" fill="none" stroke="#00A99D" stroke-width="16" stroke-linecap="round" stroke-linejoin="round" stroke-miterlimit="10" d="
		M1507.134,220.347c-0.458-10.275-0.436-30.954-0.135-41.253c0.249-8.384-2.174-11.817-7.84-11.471
		c-4.157,0.252-8.331,0.128-12.49-0.037c-4.553-0.179-17.252-0.449-20.435,0.168c-1.481,0.289-3.495,5.526-3.565,8.599
		c-0.359,15.853,0,31.731,0,47.6c-0.848,0.042-15.675,0.087-16.525,0.128c-0.901-25.268-2.215-50.527-2.509-75.805
		c-0.131-10.947-2.033-15.94-10.108-14.908c-6.494,0.827-13.091,0.559-19.619,0.064c-6.149-0.466-8.878,3.051-8.399,11.954
		c0.158,2.986,0.536,6.363-0.216,8.932c-0.848,2.897-17.723,5.084-19.223,7.58c-1.188-2.465-3.336-4.881-3.404-7.408
		c-0.36-13.312-0.024-26.658-0.322-39.975c-0.074-3.404-8.101-9.763-9.753-7.641c-10.729,0.109-14.271,0.109-19.704,2.977
		c-3.041,8.259-2.594,80.707-3.563,92.146c-0.936-0.081-16.239-0.164-17.178-0.245c-0.2-4.4-0.553-8.796-0.574-13.197
		c-0.188-31.76-0.522-63.523-0.322-95.279c0.065-10.592-2.411-14.354-9.83-14.061c-19.435,0.763-17.139-2.375-17.233,24.997
		c-0.104,29.237,0.011,58.478-0.062,87.716c-0.01,4.354-0.512,8.705-0.788,13.058c-0.951,0.056-19.938,0.114-20.892,0.17
		c-0.404-4.122-1.148-8.242-1.166-12.366c-0.114-24.51-0.005-109.201-0.086-133.709c-0.049-15.081-27.446-15.868-27.478,0.331
		c-0.032,16.77-0.146,93.724,0.051,110.487c0.084,6.903-0.204,27.928-0.204,27.928c-3.781,2.931-19.305,2.417-24.45,2.417
		c-0.118-3.732-0.381-8.124-0.385-12.521c-0.041-27.948-0.24-55.902,0.064-83.844c0.136-12.177-3.117-17.426-11.628-16.541
		c-5.919,0.615-11.895,0.236-17.841,0.135c-6.707-0.115-9.401,4.096-9.288,14.184c0.367,31.811,0.219,63.634,0.181,95.452
		c-0.003,4.276-0.51,8.552-2.924,12.813c-0.366-1.846-0.947-3.663-1.068-5.544c-1.501-23.449,2.475-40.242-12.752-44.358
		c-1.848-0.496-51.474-1.156-53.547-1.081c-5.617,0.209-6.027,5.161-5.992,11.26c0.063,12.416,0.019,24.833,0.019,37.052
		c-14.016,4.035-14.615,3.392-15.289-15.585c-0.287-8.101-13.785-52.508-19.401-51.444c-5.2,0.983-8.592,1.217-13.566,3.552
		c-5.667,2.66-11.705,5.297-16.373,10.299c-4.014,4.304-4.332,48.222-4.3,54.338c0.094,17.507-11.159,10.158-19.524,10.924
		c0-7.615-0.47-15.231,0.084-22.686c1.976-26.526-11.107-29.737-24.968-25.895c-2.305,0.64-4.571,2.309-6.847,2.271
		c-5.396-0.095-7.389,4.505-7.932,11.076c-0.385,4.673-0.445,9.455-0.271,14.16c0.388,10.479,0.638,19.47-9.987,19.193
		c-2.569-0.069-5.268,9.188-7.887,14.18c-1.815,3.45-3.311,7.362-5.444,10.315c-3.969,5.492-8.307,10.436-11.849,14.817
		c0-5.789-6.027-32.117-5.726-41.687"/>
</g>
</svg>
